<mxfile host="app.diagrams.net" modified="2023-06-18T18:16:06.126Z" agent="Mozilla/5.0 (Windows NT 10.0; Win64; x64) AppleWebKit/537.36 (KHTML, like Gecko) Chrome/112.0.0.0 Safari/537.36" etag="MAPKG_d7kjJgEYxpl35b" version="21.5.0" type="github">
  <diagram name="Page-1" id="XPTcSiGT24jqlvLNaDuI">
    <mxGraphModel dx="1644" dy="958" grid="1" gridSize="10" guides="1" tooltips="1" connect="1" arrows="1" fold="1" page="1" pageScale="1" pageWidth="850" pageHeight="1100" math="0" shadow="0">
      <root>
        <mxCell id="0" />
        <mxCell id="1" parent="0" />
        <mxCell id="SeabJ_N4aPvv0t89mtEN-16" style="edgeStyle=orthogonalEdgeStyle;rounded=0;orthogonalLoop=1;jettySize=auto;html=1;exitX=0;exitY=1;exitDx=0;exitDy=0;entryX=0;entryY=0.5;entryDx=0;entryDy=0;" edge="1" parent="1" source="SeabJ_N4aPvv0t89mtEN-2" target="SeabJ_N4aPvv0t89mtEN-3">
          <mxGeometry relative="1" as="geometry">
            <Array as="points">
              <mxPoint x="220" y="340" />
            </Array>
          </mxGeometry>
        </mxCell>
        <mxCell id="SeabJ_N4aPvv0t89mtEN-2" value="&lt;div style=&quot;&quot;&gt;&lt;span style=&quot;background-color: initial;&quot;&gt;Body Part Tree&lt;/span&gt;&lt;/div&gt;" style="rounded=0;whiteSpace=wrap;html=1;verticalAlign=middle;align=center;glass=0;shadow=0;" vertex="1" parent="1">
          <mxGeometry x="220" y="290" width="90" height="30" as="geometry" />
        </mxCell>
        <mxCell id="SeabJ_N4aPvv0t89mtEN-8" style="edgeStyle=orthogonalEdgeStyle;rounded=0;orthogonalLoop=1;jettySize=auto;html=1;exitX=0;exitY=1;exitDx=0;exitDy=0;entryX=0;entryY=0.5;entryDx=0;entryDy=0;" edge="1" parent="1" source="SeabJ_N4aPvv0t89mtEN-3" target="SeabJ_N4aPvv0t89mtEN-7">
          <mxGeometry relative="1" as="geometry">
            <mxPoint x="245" y="390" as="targetPoint" />
            <Array as="points">
              <mxPoint x="245" y="370" />
            </Array>
          </mxGeometry>
        </mxCell>
        <mxCell id="SeabJ_N4aPvv0t89mtEN-3" value="&lt;div style=&quot;&quot;&gt;&lt;span style=&quot;background-color: initial;&quot;&gt;Body Part (root)&lt;/span&gt;&lt;/div&gt;" style="rounded=0;whiteSpace=wrap;html=1;verticalAlign=middle;align=center;" vertex="1" parent="1">
          <mxGeometry x="245" y="330" width="95" height="20" as="geometry" />
        </mxCell>
        <mxCell id="SeabJ_N4aPvv0t89mtEN-7" value="&lt;div style=&quot;&quot;&gt;&lt;span style=&quot;background-color: initial;&quot;&gt;Body Part&lt;/span&gt;&lt;/div&gt;" style="rounded=0;whiteSpace=wrap;html=1;verticalAlign=middle;align=center;" vertex="1" parent="1">
          <mxGeometry x="260" y="360" width="75" height="20" as="geometry" />
        </mxCell>
        <mxCell id="SeabJ_N4aPvv0t89mtEN-9" value="The tree is required so delimbing and damage spread can be implemented in future." style="text;strokeColor=none;align=center;fillColor=none;html=1;verticalAlign=middle;whiteSpace=wrap;rounded=0;" vertex="1" parent="1">
          <mxGeometry x="170" y="224" width="220" height="30" as="geometry" />
        </mxCell>
        <mxCell id="SeabJ_N4aPvv0t89mtEN-10" value="... etc." style="text;strokeColor=none;align=center;fillColor=none;html=1;verticalAlign=middle;whiteSpace=wrap;rounded=0;fontStyle=2" vertex="1" parent="1">
          <mxGeometry x="262" y="376" width="50" height="30" as="geometry" />
        </mxCell>
        <mxCell id="SeabJ_N4aPvv0t89mtEN-38" value="" style="group" vertex="1" connectable="0" parent="1">
          <mxGeometry x="200" y="395" width="191" height="195" as="geometry" />
        </mxCell>
        <mxCell id="SeabJ_N4aPvv0t89mtEN-17" value="" style="rounded=1;whiteSpace=wrap;html=1;fontColor=default;labelBackgroundColor=none;fillColor=none;align=right;verticalAlign=top;strokeColor=#6666FF;arcSize=8;" vertex="1" parent="SeabJ_N4aPvv0t89mtEN-38">
          <mxGeometry y="5" width="191" height="190" as="geometry" />
        </mxCell>
        <mxCell id="SeabJ_N4aPvv0t89mtEN-18" value="Example" style="text;strokeColor=none;align=center;fillColor=none;html=1;verticalAlign=middle;whiteSpace=wrap;rounded=0;fontStyle=1;fontColor=#6666FF;textOpacity=50;" vertex="1" parent="SeabJ_N4aPvv0t89mtEN-38">
          <mxGeometry x="119" width="60" height="30" as="geometry" />
        </mxCell>
        <mxCell id="SeabJ_N4aPvv0t89mtEN-19" value="&lt;div style=&quot;&quot;&gt;&lt;span style=&quot;background-color: initial;&quot;&gt;Torso (root)&lt;/span&gt;&lt;/div&gt;" style="rounded=0;whiteSpace=wrap;html=1;verticalAlign=middle;align=center;" vertex="1" parent="SeabJ_N4aPvv0t89mtEN-38">
          <mxGeometry x="46" y="29" width="95" height="20" as="geometry" />
        </mxCell>
        <mxCell id="SeabJ_N4aPvv0t89mtEN-20" value="&lt;div style=&quot;&quot;&gt;&lt;span style=&quot;background-color: initial;&quot;&gt;Groin&lt;/span&gt;&lt;/div&gt;" style="rounded=0;whiteSpace=wrap;html=1;verticalAlign=middle;align=center;" vertex="1" parent="SeabJ_N4aPvv0t89mtEN-38">
          <mxGeometry x="63" y="138" width="95" height="20" as="geometry" />
        </mxCell>
        <mxCell id="SeabJ_N4aPvv0t89mtEN-30" style="edgeStyle=orthogonalEdgeStyle;rounded=0;orthogonalLoop=1;jettySize=auto;html=1;exitX=0;exitY=1;exitDx=0;exitDy=0;entryX=0;entryY=0.5;entryDx=0;entryDy=0;" edge="1" parent="SeabJ_N4aPvv0t89mtEN-38" source="SeabJ_N4aPvv0t89mtEN-19" target="SeabJ_N4aPvv0t89mtEN-20">
          <mxGeometry relative="1" as="geometry">
            <Array as="points">
              <mxPoint x="46" y="148" />
            </Array>
          </mxGeometry>
        </mxCell>
        <mxCell id="SeabJ_N4aPvv0t89mtEN-21" value="&lt;div style=&quot;&quot;&gt;&lt;span style=&quot;background-color: initial;&quot;&gt;Left leg&lt;/span&gt;&lt;/div&gt;" style="rounded=0;whiteSpace=wrap;html=1;verticalAlign=middle;align=center;" vertex="1" parent="SeabJ_N4aPvv0t89mtEN-38">
          <mxGeometry x="75" y="165" width="95" height="20" as="geometry" />
        </mxCell>
        <mxCell id="SeabJ_N4aPvv0t89mtEN-32" style="edgeStyle=orthogonalEdgeStyle;rounded=0;orthogonalLoop=1;jettySize=auto;html=1;exitX=0;exitY=1;exitDx=0;exitDy=0;entryX=0;entryY=0.5;entryDx=0;entryDy=0;" edge="1" parent="SeabJ_N4aPvv0t89mtEN-38" source="SeabJ_N4aPvv0t89mtEN-20" target="SeabJ_N4aPvv0t89mtEN-21">
          <mxGeometry relative="1" as="geometry">
            <Array as="points">
              <mxPoint x="63" y="175" />
            </Array>
          </mxGeometry>
        </mxCell>
        <mxCell id="SeabJ_N4aPvv0t89mtEN-22" value="&lt;div style=&quot;&quot;&gt;&lt;span style=&quot;background-color: initial;&quot;&gt;Left arm&lt;/span&gt;&lt;/div&gt;" style="rounded=0;whiteSpace=wrap;html=1;verticalAlign=middle;align=center;" vertex="1" parent="SeabJ_N4aPvv0t89mtEN-38">
          <mxGeometry x="63" y="83" width="95" height="20" as="geometry" />
        </mxCell>
        <mxCell id="SeabJ_N4aPvv0t89mtEN-26" style="edgeStyle=orthogonalEdgeStyle;rounded=0;orthogonalLoop=1;jettySize=auto;html=1;exitX=0;exitY=1;exitDx=0;exitDy=0;entryX=0;entryY=0.5;entryDx=0;entryDy=0;" edge="1" parent="SeabJ_N4aPvv0t89mtEN-38" source="SeabJ_N4aPvv0t89mtEN-19" target="SeabJ_N4aPvv0t89mtEN-22">
          <mxGeometry relative="1" as="geometry">
            <Array as="points">
              <mxPoint x="46" y="93" />
            </Array>
          </mxGeometry>
        </mxCell>
        <mxCell id="SeabJ_N4aPvv0t89mtEN-23" value="&lt;div style=&quot;&quot;&gt;&lt;span style=&quot;background-color: initial;&quot;&gt;Head&lt;/span&gt;&lt;/div&gt;" style="rounded=0;whiteSpace=wrap;html=1;verticalAlign=middle;align=center;" vertex="1" parent="SeabJ_N4aPvv0t89mtEN-38">
          <mxGeometry x="63" y="55" width="95" height="20" as="geometry" />
        </mxCell>
        <mxCell id="SeabJ_N4aPvv0t89mtEN-25" style="edgeStyle=orthogonalEdgeStyle;rounded=0;orthogonalLoop=1;jettySize=auto;html=1;exitX=0;exitY=1;exitDx=0;exitDy=0;entryX=0;entryY=0.5;entryDx=0;entryDy=0;" edge="1" parent="SeabJ_N4aPvv0t89mtEN-38" source="SeabJ_N4aPvv0t89mtEN-19" target="SeabJ_N4aPvv0t89mtEN-23">
          <mxGeometry relative="1" as="geometry">
            <Array as="points">
              <mxPoint x="46" y="65" />
            </Array>
          </mxGeometry>
        </mxCell>
        <mxCell id="SeabJ_N4aPvv0t89mtEN-24" value="&lt;div style=&quot;&quot;&gt;&lt;span style=&quot;background-color: initial;&quot;&gt;Left hand&lt;/span&gt;&lt;/div&gt;" style="rounded=0;whiteSpace=wrap;html=1;verticalAlign=middle;align=center;" vertex="1" parent="SeabJ_N4aPvv0t89mtEN-38">
          <mxGeometry x="75" y="110" width="95" height="20" as="geometry" />
        </mxCell>
        <mxCell id="SeabJ_N4aPvv0t89mtEN-31" style="edgeStyle=orthogonalEdgeStyle;rounded=0;orthogonalLoop=1;jettySize=auto;html=1;exitX=0;exitY=1;exitDx=0;exitDy=0;entryX=0;entryY=0.5;entryDx=0;entryDy=0;" edge="1" parent="SeabJ_N4aPvv0t89mtEN-38" source="SeabJ_N4aPvv0t89mtEN-22" target="SeabJ_N4aPvv0t89mtEN-24">
          <mxGeometry relative="1" as="geometry">
            <Array as="points">
              <mxPoint x="63" y="120" />
            </Array>
          </mxGeometry>
        </mxCell>
        <mxCell id="SeabJ_N4aPvv0t89mtEN-34" value="" style="edgeStyle=orthogonalEdgeStyle;orthogonalLoop=1;jettySize=auto;html=1;rounded=0;entryX=0;entryY=0.5;entryDx=0;entryDy=0;" edge="1" parent="SeabJ_N4aPvv0t89mtEN-38" target="SeabJ_N4aPvv0t89mtEN-19">
          <mxGeometry width="80" relative="1" as="geometry">
            <mxPoint x="20" y="10" as="sourcePoint" />
            <mxPoint x="10" y="-15" as="targetPoint" />
            <Array as="points">
              <mxPoint x="20" y="10" />
              <mxPoint x="20" y="39" />
            </Array>
          </mxGeometry>
        </mxCell>
      </root>
    </mxGraphModel>
  </diagram>
</mxfile>
